<svg xmlns="http://www.w3.org/2000/svg" xmlns:xlink="http://www.w3.org/1999/xlink" viewBox="0 0 272.39 53.61"><defs><linearGradient id="ba6d9e38-0651-4312-9d78-d334c874b2d1" x1="18.6" y1="46.83" x2="22.72" y2="52.7" gradientUnits="userSpaceOnUse"><stop offset="0" stop-color="#716558"/><stop offset="0.01" stop-color="#796d61"/><stop offset="0.05" stop-color="#9c948b"/><stop offset="0.1" stop-color="#bbb5af"/><stop offset="0.15" stop-color="#d4d0cc"/><stop offset="0.2" stop-color="#e7e5e3"/><stop offset="0.26" stop-color="#f4f4f3"/><stop offset="0.32" stop-color="#fcfcfc"/><stop offset="0.41" stop-color="#fff"/><stop offset="0.47" stop-color="#f9fafc"/><stop offset="0.55" stop-color="#e9eaf3"/><stop offset="0.65" stop-color="#cdd0e5"/><stop offset="0.75" stop-color="#a7add1"/><stop offset="0.86" stop-color="#767fb7"/><stop offset="0.97" stop-color="#3c4898"/><stop offset="1" stop-color="#2b388f"/></linearGradient><linearGradient id="f0b5b8ca-2eb9-4fff-857a-38818b05a4d8" x1="49.15" y1="25.52" x2="52.5" y2="30.31" xlink:href="#ba6d9e38-0651-4312-9d78-d334c874b2d1"/></defs><title>Asset 1</title><g id="51d2a88d-a39f-4032-a25e-f6515b0a99db" data-name="Layer 2"><g id="9849569e-357b-4019-970c-37797d24d842" data-name="Layer 1"><g id="a9bd22b0-e3bc-41cf-aa84-c962c6695089" data-name="Logo"><text transform="translate(83.19 29.89) scale(0.89 1)" font-size="15.39" fill="#e0dad9" font-family="Engry, Engry">PHAS<tspan x="55.43" y="0" letter-spacing="-0.16em">W</tspan><tspan x="71" y="0">ANA &amp; VICTOR</tspan></text><text transform="translate(96.21 39.16)" font-size="6.44" fill="#231f20" font-family="Lato-Light, Lato" letter-spacing="0.37em">A<tspan x="6.6" y="0" letter-spacing="0.37em">R</tspan><tspan x="12.87" y="0">CHIT</tspan><tspan x="37.02" y="0" letter-spacing="0.35em">E</tspan><tspan x="43.04" y="0">C</tspan><tspan x="49.77" y="0" letter-spacing="0.34em">T</tspan><tspan x="55.69" y="0" letter-spacing="0.34em"> </tspan><tspan x="59.61" y="0">AND </tspan><tspan x="84.87" y="0" letter-spacing="0.36em">C</tspan><tspan x="91.52" y="0" letter-spacing="0.37em">ONST</tspan><tspan x="118.19" y="0" letter-spacing="0.37em">R</tspan><tspan x="124.46" y="0">UCTION</tspan></text><polygon points="36.68 20.17 36.68 22.35 40.98 22.35 40.98 25.63 23.93 25.63 23.93 23.99 12.31 23.99 14.88 22.35 27.7 22.35 27.7 20.63 27.86 20.63 27.86 19.6 31.84 19.6 31.84 17.43 22.61 17.43 40.98 5.76 40.98 20.17 36.68 20.17" fill="#e0dad9"/><path d="M19.67,27.84v3.32h4.26v2.17H19.67v8.16h7.6l.44-.32.15-.12.46-.33L30.1,39.4l.78-.57,1.41-1,.41-.3.21-.15,0,0V35h3.28v-.13l2.1-1.55,2.32-1.71.33-.24V27.84Z" fill="#e0dad9"/><path d="M64.88,14.62l-1.59,1.14h-.15l-21-13.6-21,13.6L17.21,16l5.28-3.39V7.26h3.33v3.18L42.08,0h0Z" fill="#d79933"/><polygon points="42.1 0.02 42.09 0.01 42.1 0 42.1 0.02" fill="#e0dad9"/><polygon points="42.09 0.01 42.08 0.02 42.08 0 42.09 0.01" fill="#e0dad9"/><path d="M41.28,31.16a1.09,1.09,0,0,0-.17.13v-.13Z" fill="#aa9f9b"/><path d="M44.59,28.41V29l-.43.19a4.53,4.53,0,0,0-.94.55l-1.16.85H36.68V28.41Z" fill="#d79933"/><path d="M40.65,31.16v.46l-2.32,1.71H32.74V31.16Z" fill="#aa9f9b"/><path d="M32.91,36.65v.68l-.21.15v-.83Z" fill="#69564c"/><rect x="28.32" y="28.41" width="7.91" height="2.17" fill="#beb7b5"/><rect x="24.38" y="31.16" width="7.91" height="2.17" fill="#aa9f9b"/><polygon points="36.23 33.91 36.23 35.01 32.91 35.01 32.91 36.08 28.32 36.08 28.32 33.91 36.23 33.91" fill="#8e7e78"/><path d="M32.29,36.65v1.13l-1.41,1h-6.5V36.65Z" fill="#69564c"/><path d="M30.1,39.4l-1.78,1.32V39.4Z" fill="#aa9f9b"/><rect x="19.67" y="28.41" width="8.2" height="2.17" fill="#beb7b5"/><rect x="19.95" y="33.91" width="7.91" height="2.17" fill="#d79933"/><rect x="19.67" y="36.65" width="4.26" height="2.17" fill="#d79933"/><path d="M27.86,39.4v1.65l-.7.52H20V39.4Z" fill="#d79933"/><rect x="32.74" y="17.43" width="7.91" height="2.17" fill="#8e7e78"/><rect x="32.74" y="22.92" width="7.91" height="2.17" fill="#aa9f9b"/><rect x="28.32" y="20.17" width="7.91" height="2.17" fill="#d79933"/><rect x="24.38" y="22.92" width="7.91" height="2.17" fill="#aa9f9b"/><rect x="35" y="11.77" width="1.76" height="2.01" fill="#546979"/><rect x="37.13" y="11.77" width="1.76" height="2.01" fill="#546979"/><rect x="35" y="14.11" width="1.76" height="2.01" fill="#546979"/><rect x="37.13" y="14.11" width="1.76" height="2.01" fill="#546979"/><g id="8e408ec7-016f-4812-93d5-11d37090527c" data-name="Layer_1"><path d="M25.81,48.28l-1.73,3.47a29,29,0,0,0-7,1.71l-.33-.59,2.72-1.95,2-1.43a.69.69,0,0,0,.25.1.64.64,0,0,0,.74-.53.65.65,0,0,0-.54-.74.63.63,0,0,0-.73.53.61.61,0,0,0,0,.33l-2.66,1.91-2,1.44-.47-.6a25.09,25.09,0,0,0,3.83-6l3.65-.88h0l2.27,3.22Z" stroke="#231f20" stroke-miterlimit="10" stroke-width="0.25" fill="url(#ba6d9e38-0651-4312-9d78-d334c874b2d1)"/></g><path d="M76.54,10.94l-.24.27.1.21c.08.2.08.22,0,.37a12.3,12.3,0,0,1-1.85,1.87c-.33.28-18.71,13.64-26.1,19a7.21,7.21,0,0,0-.9.83,3.72,3.72,0,0,1-.8.71c-.33.2-5.83,4.08-9.53,6.73l-5.16,3.68c-1.59,1.12-3,2.1-3,2.17s-.83.42-2.05,1l-.68.32-.49.22-2.27-3.22c1.27-1.37,2.23-2.41,2.26-2.42s.16.07.38.37a15.24,15.24,0,0,0,1.06,1.37c.07,0-.13-.27-.73-1.13a4.74,4.74,0,0,1-.51-.82c.05,0,16.54-12.21,17.22-12.69a4.53,4.53,0,0,1,.94-.55c.2-.08.54-.24.73-.34.78-.41-.26.33,17.63-12.54,5.09-3.66,9.54-6.84,9.89-7.08s.86-.54,1.13-.67.49-.26.51-.26a1.14,1.14,0,0,1,.26.23l.24.24.34-.13a2.78,2.78,0,0,1,.73-.16,1.17,1.17,0,0,1,.69.09,1.35,1.35,0,0,1,.44.29A1.59,1.59,0,0,1,76.54,10.94Z" stroke="#231f20" stroke-miterlimit="10" stroke-width="0.25" fill="url(#f0b5b8ca-2eb9-4fff-857a-38818b05a4d8)"/><path id="7ddbffb5-18a6-493c-a7cf-a49812db4b6d" data-name="path3760" d="M.86,51.12a14.9,14.9,0,0,1,1.71-.26c.07,0,.1.07.07.1a4.09,4.09,0,0,1-.6.32c-1,.54-1,1-1,1.21.07.61.93,1.12,4.07.93,1.3-.11,2.56-.34,3.73-.53A26.42,26.42,0,0,1,12,52.51c1.7,0,1.83.48,3.11.48.12,0,.21,0,.21-.15s-.13-.15-.2-.16c-1.08,0-1.36-.7-3.13-.69a20.42,20.42,0,0,0-3.94.35c-2.65.37-5.82.53-5.82,0,0-.31,2.2-.89,2.2-1.79,0-.48-.6-1.16-3.81-.58-.28,0-.65.24-.63.64s.32.68.86.53" fill="#d79933"/><text transform="translate(58.92 30.36)" font-size="6.44" fill="#231f20" font-family="Lato-Light, Lato" letter-spacing="0.37em">PT<tspan x="12.22" y="0" letter-spacing="0.33em">Y</tspan></text><text transform="translate(44.27 45.42)" font-size="6.44" fill="#231f20" font-family="Lato-Light, Lato" letter-spacing="0.27em">L<tspan x="5" y="0" letter-spacing="0.37em">TD</tspan></text><rect x="157.33" y="43.09" width="40.91" height="1.48" fill="#b87b2a"/></g></g></g></svg>