<svg id="Layer_1" data-name="Layer 1" xmlns="http://www.w3.org/2000/svg" xmlns:xlink="http://www.w3.org/1999/xlink" viewBox="0 0 6786.6 1392.16"><defs><style>.cls-1{fill:#e0dbda;}.cls-2{fill:#d79933;}.cls-3{fill:#aa9f9b;}.cls-4{fill:#69574d;}.cls-5{fill:#bfb8b6;}.cls-6{fill:#8f7e78;}.cls-7{fill:#546879;}.cls-8,.cls-9{stroke:#231f20;stroke-miterlimit:10;}.cls-8{fill:url(#linear-gradient);}.cls-9{fill:url(#linear-gradient-2);}.cls-10{font-size:375.4px;font-family:Engry, Engry;}.cls-10,.cls-20{fill:#b97b2a;}.cls-11{letter-spacing:-0.16em;}.cls-12,.cls-18,.cls-19{font-size:157.09px;fill:#231f20;font-family:Lato-Light, Lato;}.cls-12{letter-spacing:0.37em;}.cls-13{letter-spacing:0.31em;}.cls-14{letter-spacing:0.31em;}.cls-15{letter-spacing:0.35em;}.cls-16,.cls-18{letter-spacing:0.37em;}.cls-17{letter-spacing:0.35em;}.cls-19{letter-spacing:0.29em;}</style><linearGradient id="linear-gradient" x1="2433.26" y1="1565.4" x2="2533.62" y2="1708.73" gradientUnits="userSpaceOnUse"><stop offset="0" stop-color="#726658"/><stop offset="0.01" stop-color="#7a6e61"/><stop offset="0.05" stop-color="#9d958b"/><stop offset="0.1" stop-color="#bbb5af"/><stop offset="0.15" stop-color="#d4d0cc"/><stop offset="0.2" stop-color="#e7e5e3"/><stop offset="0.26" stop-color="#f5f4f3"/><stop offset="0.32" stop-color="#fcfcfc"/><stop offset="0.41" stop-color="#fff"/><stop offset="0.47" stop-color="#f9fafc"/><stop offset="0.55" stop-color="#e9eaf3"/><stop offset="0.65" stop-color="#cdd1e5"/><stop offset="0.75" stop-color="#a7add1"/><stop offset="0.86" stop-color="#767fb7"/><stop offset="0.97" stop-color="#3c4999"/><stop offset="1" stop-color="#2b3990"/></linearGradient><linearGradient id="linear-gradient-2" x1="3178.41" y1="1045.66" x2="3260.26" y2="1162.55" xlink:href="#linear-gradient"/></defs><title>Construction Logo-header</title><polygon class="cls-1" points="894.77 492.15 894.77 545.15 999.77 545.15 999.77 625.15 583.77 625.15 583.77 585.15 300.41 585.15 363.13 545.15 675.77 545.15 675.77 503.15 679.77 503.15 679.77 478.15 776.77 478.15 776.77 425.15 551.51 425.15 999.77 140.56 999.77 492.15 894.77 492.15"/><polygon class="cls-1" points="999.77 679.15 999.77 880.99 982.56 893.95 932.77 931.49 932.77 854.15 803.77 854.15 803.77 1012.15 479.77 1012.15 479.77 813.15 583.77 813.15 583.77 760.15 479.77 760.15 479.77 679.15 999.77 679.15"/><polygon class="cls-2" points="1633.84 389.38 1540.27 384.24 1026.84 52.36 513.41 384.24 419.84 389.38 548.77 306.66 548.77 177.15 629.77 177.15 629.77 254.73 1026.48 0.21 1026.84 0 1027.2 0.21 1633.84 389.38"/><polygon class="cls-1" points="1027.14 0.39 1026.79 0.18 1026.93 0.11 1027.14 0.39"/><polygon class="cls-1" points="1026.79 0.18 1026.43 0.39 1026.64 0.11 1026.79 0.18"/><polygon class="cls-3" points="1160.27 760.15 1089.67 813.15 1002.77 813.15 1002.77 760.15 1160.27 760.15"/><rect class="cls-2" x="894.77" y="693.15" width="193" height="53"/><rect class="cls-3" x="798.77" y="760.15" width="193" height="53"/><rect class="cls-4" x="797.77" y="894.15" width="5" height="53"/><polygon class="cls-4" points="982.77 894.15 932.77 931.69 932.77 894.15 982.77 894.15"/><rect class="cls-5" x="690.77" y="693.15" width="193" height="53"/><rect class="cls-3" x="594.77" y="760.15" width="193" height="53"/><polygon class="cls-6" points="883.77 827.15 883.77 854.15 802.77 854.15 802.77 880.15 690.77 880.15 690.77 827.15 883.77 827.15"/><rect class="cls-4" x="594.77" y="894.15" width="193" height="53"/><rect class="cls-3" x="690.77" y="961.15" width="112" height="53"/><rect class="cls-5" x="479.77" y="693.15" width="200" height="53"/><rect class="cls-2" x="486.77" y="827.15" width="193" height="53"/><rect class="cls-2" x="479.77" y="894.15" width="104" height="53"/><rect class="cls-2" x="486.77" y="961.15" width="193" height="53"/><rect class="cls-6" x="798.77" y="425.15" width="193" height="53"/><rect class="cls-3" x="798.77" y="559.15" width="193" height="53"/><rect class="cls-2" x="690.77" y="492.15" width="193" height="53"/><rect class="cls-3" x="594.77" y="559.15" width="193" height="53"/><rect class="cls-7" x="853.77" y="287.15" width="43" height="49"/><rect class="cls-7" x="905.77" y="287.15" width="43" height="49"/><rect class="cls-7" x="853.77" y="344.15" width="43" height="49"/><rect class="cls-7" x="905.77" y="344.15" width="43" height="49"/><g id="Layer_1-2" data-name="Layer_1"><path class="cls-8" d="M2608.92,1601l-42.21,84.57c-59.49,6.63-116.23,21.12-170.9,41.64l-8.13-14.25,66.44-47.62,48.71-34.92a15.67,15.67,0,1,0-6.06-7.64l-64.94,46.61-49.07,35.24L2371.14,1690a613.13,613.13,0,0,0,93.41-146.49l89.06-21.39.12.16,55.19,78.74Z" transform="translate(-1979.39 -423.07)"/></g><path class="cls-9" d="M3846.56,689.87l-5.75,6.67,2.25,5.19c2.13,4.84,2.16,5.32.22,9.08-3.7,6.77-26.5,29.68-45.14,45.4-8.17,6.94-456.59,332.88-636.75,462.93-5.45,3.86-15.3,13-21.89,20.18-8.17,8.76-14.6,14.5-19.63,17.36-8,4.75-142.32,99.54-232.55,164.16-30.62,21.94-87.22,62.36-125.86,89.78s-71.81,51.2-73.88,52.91c-1.56,1.34-20.13,10.3-50,24.17-5.17,2.42-10.71,5-16.55,7.68-3.91,1.82-8,3.69-12.15,5.61l-55.19-78.74c30.84-33.31,54.45-58.63,55.14-59.08,1.17-.8,3.75,1.82,9.07,9.12,14.06,19.12,24.61,32.75,25.86,33.39,1.88,1-3.07-6.58-17.62-27.49-7.33-10.45-13-19.54-12.53-19.93,1.14-1.28,403.4-297.88,420.11-309.73,8.7-6.25,17.11-11.26,22.91-13.44,5-1.9,13.1-5.69,17.92-8.16,19-10.17-6.54,7.92,430-306,124.08-89.19,232.63-166.84,241.24-172.6s21-13.21,27.46-16.53a139.09,139.09,0,0,1,12.57-6.23c.35-.15,3.31,2.44,6.41,5.65l5.71,5.81,8.28-3.19a67.1,67.1,0,0,1,17.93-3.92c8.32-.64,10.77-.32,16.76,2.22,3.85,1.57,8.77,4.66,10.86,7C3863.16,651.24,3860.88,673,3846.56,689.87Z" transform="translate(-1979.39 -423.07)"/><path id="path3760" class="cls-2" d="M2000.4,1670.11c4.81-1.17,32.49-6.12,41.67-6.27,1.75,0,2.48,1.75,1.6,2.48-3.64,2.91-13.11,7-14.42,7.72-24,13.11-25.35,24.19-24.92,29.58,1.6,14.86,22.59,27.24,99.23,22.58,31.61-2.62,62.36-8.3,90.92-13s64.11-9.17,77.8-9.17c41.53,0,44.73,11.65,76.06,11.65,2.77,0,4.95-.58,4.95-3.64s-3.06-3.64-4.8-3.79c-26.38,0-33.08-17-76.35-16.9-23.75-.15-31.18-.58-96,8.45s-142.06,13-142.06-.29c0-7.58,53.62-21.86,53.62-43.71,0-11.66-14.72-28.27-93-14.28-6.85,1.31-15.89,5.83-15.3,15.73.43,9.18,7.72,16.47,21,12.83" transform="translate(-1979.39 -423.07)"/><text class="cls-10" transform="translate(2025.41 1034.12) scale(0.89 1)">PHAS<tspan class="cls-11" x="1352.21" y="0">W</tspan><tspan x="1732.01" y="0">ANA &amp; VICTOR</tspan></text><text class="cls-12" transform="translate(1879.63 1260.33)">H<tspan class="cls-13" x="176.89" y="0">A</tspan><tspan class="cls-14" x="327.22" y="0">T</tspan><tspan x="467.74" y="0">CH A</tspan><tspan class="cls-15" x="1061.07" y="0">R</tspan><tspan class="cls-16" x="1214.94" y="0">CHITECT AND CONST</tspan><tspan class="cls-17" x="3794.77" y="0">R</tspan><tspan class="cls-16" x="3949.66" y="0">UCTION</tspan></text><text class="cls-18" transform="translate(1459.7 813.71)">PTY</text><text class="cls-19" transform="translate(1175.59 1107.95)">L<tspan class="cls-16" x="125.52" y="0">TD</tspan></text><rect class="cls-20" x="3834.12" y="1356.16" width="998" height="36"/></svg>