<svg xmlns="http://www.w3.org/2000/svg" xmlns:xlink="http://www.w3.org/1999/xlink" viewBox="0 0 286 52.15"><defs><linearGradient id="29c9cfdc-5eca-4607-8a59-3cd353997223" x1="18.12" y1="45.55" x2="22.12" y2="51.26" gradientUnits="userSpaceOnUse"><stop offset="0" stop-color="#716558"/><stop offset="0.01" stop-color="#796d61"/><stop offset="0.05" stop-color="#9c948b"/><stop offset="0.1" stop-color="#bbb5af"/><stop offset="0.15" stop-color="#d4d0cc"/><stop offset="0.2" stop-color="#e7e5e3"/><stop offset="0.26" stop-color="#f4f4f3"/><stop offset="0.32" stop-color="#fcfcfc"/><stop offset="0.41" stop-color="#fff"/><stop offset="0.47" stop-color="#f9fafc"/><stop offset="0.55" stop-color="#e9eaf3"/><stop offset="0.65" stop-color="#cdd0e5"/><stop offset="0.75" stop-color="#a7add1"/><stop offset="0.86" stop-color="#767fb7"/><stop offset="0.97" stop-color="#3c4898"/><stop offset="1" stop-color="#2b388f"/></linearGradient><linearGradient id="1b5c66a3-75aa-41aa-b735-d39d1f475627" x1="47.86" y1="24.83" x2="51.11" y2="29.48" xlink:href="#29c9cfdc-5eca-4607-8a59-3cd353997223"/></defs><title>1Asset 24</title><g id="73ec813a-dd9b-4c5b-92a7-0bc3de7b3b8d" data-name="Layer 2"><g id="f08c8442-a202-4c1b-af3b-61ebc316babb" data-name="Desktop 1200px"><g id="bd3be63f-b94f-4682-9027-52048723d566" data-name="Section home"><g id="5e25486e-fe4d-4401-9313-7650a731b17f" data-name="Logo"><rect x="162.9" y="41.92" width="39.83" height="1.44" fill="#b87b2a"/><text transform="translate(85.31 38.09)" font-size="6.26" fill="#e0dad9" font-family="Lato-Light, Lato" letter-spacing="0.37em">H<tspan x="7.05" y="0" letter-spacing="0.3em">A</tspan><tspan x="13.03" y="0" letter-spacing="0.33em">T</tspan><tspan x="18.72" y="0">CH</tspan><tspan x="32.31" y="0" letter-spacing="0.34em"> </tspan><tspan x="36.13" y="0" letter-spacing="0.37em">A</tspan><tspan x="42.55" y="0" letter-spacing="0.37em">R</tspan><tspan x="48.65" y="0" letter-spacing="0.37em">CHIT</tspan><tspan x="72.14" y="0" letter-spacing="0.35em">E</tspan><tspan x="77.99" y="0">C</tspan><tspan x="84.54" y="0" letter-spacing="0.34em">T</tspan><tspan x="90.3" y="0" letter-spacing="0.34em"> </tspan><tspan x="94.11" y="0" letter-spacing="0.37em">AND </tspan><tspan x="118.68" y="0" letter-spacing="0.36em">C</tspan><tspan x="125.15" y="0">ONST</tspan><tspan x="151.09" y="0" letter-spacing="0.37em">R</tspan><tspan x="157.2" y="0" letter-spacing="0.37em">UCTION</tspan></text><text transform="translate(79.63 29.08)" font-size="14.97" fill="#e0dad9" font-family="Engry, Engry">PHAS<tspan x="53.92" y="0" letter-spacing="-0.16em">W</tspan><tspan x="69.06" y="0">ANA &amp; VICTOR</tspan></text><text transform="translate(43.1 44.18)" font-size="6.26" fill="#e0dad9" font-family="Lato-Light, Lato" letter-spacing="0.27em">L<tspan x="4.86" y="0" letter-spacing="0.37em">TD</tspan></text><text transform="translate(57.36 29.53)" font-size="6.26" fill="#e0dad9" font-family="Lato-Light, Lato" letter-spacing="0.37em">PT<tspan x="11.88" y="0" letter-spacing="0.33em">Y</tspan></text><polygon points="35.71 19.62 35.71 21.74 39.9 21.74 39.9 24.93 23.3 24.93 23.3 23.33 11.99 23.33 14.49 21.74 26.97 21.74 26.97 20.06 27.13 20.06 27.13 19.07 31 19.07 31 16.95 22.01 16.95 39.9 5.61 39.9 19.62 35.71 19.62" fill="#e0dad9"/><path d="M19.15,27.08v3.23H23.3v2.11H19.15v7.94h7.4L27,40l.15-.11.44-.32,1.73-1.29.76-.55,1.38-1,.4-.29.2-.15,0,0V34.06h3.19v-.13l2-1.51,2.26-1.66.32-.24V27.08Z" fill="#e0dad9"/><path d="M63.16,14.22l-1.54,1.11h-.15L41,2.09,20.49,15.32l-3.73.21,5.14-3.3V7.06h3.23v3.1L41,0Z" fill="#d79933"/><path d="M40.19,30.31l-.17.12v-.12Z" fill="#aa9f9b"/><path d="M43.41,27.64v.57a4.4,4.4,0,0,1-.42.18,4.82,4.82,0,0,0-.91.54c-.1.06-.5.36-1.13.82H35.71V27.64Z" fill="#d79933"/><path d="M39.58,30.31v.45l-2.26,1.66H31.88V30.31Z" fill="#aa9f9b"/><path d="M32,35.65v.66l-.2.15v-.81Z" fill="#69564c"/><rect x="27.57" y="27.64" width="7.7" height="2.11" fill="#beb7b5"/><rect x="23.74" y="30.31" width="7.7" height="2.11" fill="#aa9f9b"/><polygon points="35.27 32.98 35.27 34.06 32.04 34.06 32.04 35.09 27.57 35.09 27.57 32.98 35.27 32.98" fill="#8e7e78"/><path d="M31.44,35.65v1.1l-1.38,1H23.74V35.65Z" fill="#69564c"/><path d="M29.3,38.32l-1.73,1.29V38.32Z" fill="#aa9f9b"/><rect x="19.15" y="27.64" width="7.98" height="2.11" fill="#beb7b5"/><rect x="19.43" y="32.98" width="7.7" height="2.11" fill="#d79933"/><rect x="19.15" y="35.65" width="4.15" height="2.11" fill="#d79933"/><path d="M27.13,38.32v1.61l-.69.51h-7V38.32Z" fill="#d79933"/><rect x="31.88" y="16.95" width="7.7" height="2.11" fill="#8e7e78"/><rect x="31.88" y="22.3" width="7.7" height="2.11" fill="#aa9f9b"/><rect x="27.57" y="19.62" width="7.7" height="2.11" fill="#d79933"/><rect x="23.74" y="22.3" width="7.7" height="2.11" fill="#aa9f9b"/><rect x="34.07" y="11.45" width="1.72" height="1.95" fill="#546979"/><rect x="36.15" y="11.45" width="1.72" height="1.95" fill="#546979"/><rect x="34.07" y="13.72" width="1.72" height="1.95" fill="#546979"/><rect x="36.15" y="13.72" width="1.72" height="1.95" fill="#546979"/><path id="edc438cd-36f1-4ab0-b574-d395f161da90" data-name="path3760" d="M.84,49.72c.19,0,1.3-.24,1.66-.25.07,0,.1.07.07.1a4.38,4.38,0,0,1-.58.31c-1,.52-1,1-1,1.18.06.59.9,1.09,4,.9,1.26-.1,2.48-.33,3.62-.52a26.48,26.48,0,0,1,3.11-.36c1.66,0,1.78.46,3,.46.11,0,.2,0,.2-.14s-.12-.15-.19-.15c-1.05,0-1.32-.68-3.05-.68a20.75,20.75,0,0,0-3.83.34c-2.59.36-5.67.52-5.67,0,0-.31,2.14-.87,2.14-1.75,0-.46-.59-1.12-3.71-.57-.27.06-.63.24-.61.63s.31.66.84.51" fill="#d79933"/><path d="M25.12,47l-1.68,3.37A27.88,27.88,0,0,0,16.62,52l-.33-.57L19,49.53l1.94-1.39a.69.69,0,0,0,.25.1.63.63,0,1,0,.2-1.24.63.63,0,0,0-.72.52.58.58,0,0,0,0,.32l-2.59,1.85-2,1.41-.47-.58a24,24,0,0,0,3.73-5.85l3.56-.85h0L25.12,47Z" stroke="#231f20" stroke-miterlimit="10" stroke-width="0.25" fill="url(#29c9cfdc-5eca-4607-8a59-3cd353997223)"/><path d="M74.52,10.64l-.23.26.09.21c.08.19.08.21,0,.36a11.91,11.91,0,0,1-1.81,1.81c-.32.28-18.22,13.28-25.41,18.46a6.91,6.91,0,0,0-.87.81,4.08,4.08,0,0,1-.78.69c-.33.19-5.68,4-9.29,6.54l-5,3.58-2.95,2.11c-.06.06-.8.41-2,1l-.66.3-.49.23-2.2-3.14c1.23-1.33,2.17-2.34,2.2-2.36s.15.07.36.37a16.75,16.75,0,0,0,1,1.33c.07,0-.13-.27-.71-1.1a5.69,5.69,0,0,1-.5-.79c.05-.05,16.1-11.88,16.77-12.35a4.82,4.82,0,0,1,.91-.54l.72-.32c.76-.41-.26.31,17.16-12.21C65.82,12.31,70.15,9.21,70.5,9s.84-.52,1.09-.66l.51-.25a1.57,1.57,0,0,1,.25.23l.23.23.33-.13a2.62,2.62,0,0,1,.72-.15,1.07,1.07,0,0,1,.66.09,1.43,1.43,0,0,1,.44.27A1.57,1.57,0,0,1,74.52,10.64Z" stroke="#231f20" stroke-miterlimit="10" stroke-width="0.25" fill="url(#1b5c66a3-75aa-41aa-b735-d39d1f475627)"/></g></g></g></g></svg>